<svg width="100" height="100" viewBox="0 0 100 100" fill="none" xmlns="http://www.w3.org/2000/svg">
<rect width="100" height="100" rx="15" fill="url(#paint0_linear_101_2)"/>
<path d="M61.6386 41.3986C63.4654 40.489 64.9313 38.9888 65.7984 37.1414C66.6656 35.2941 66.883 33.2079 66.4156 31.2214C65.9481 29.2349 64.8232 27.4647 63.2233 26.1979C61.6234 24.931 59.6423 24.2419 57.6016 24.2424H41.3985C39.3577 24.2419 37.3767 24.931 35.7767 26.1979C34.1768 27.4647 33.0519 29.2349 32.5844 31.2214C32.117 33.2079 32.3345 35.2941 33.2016 37.1414C34.0687 38.9888 35.5346 40.489 37.3614 41.3986C35.8542 42.1486 34.5862 43.3041 33.6998 44.7353C32.8133 46.1665 32.3438 47.8166 32.3438 49.5001C32.3438 51.1836 32.8134 52.8337 33.6998 54.2648C34.5862 55.696 35.8543 56.8516 37.3615 57.6016C35.9181 58.321 34.6931 59.4129 33.8131 60.7644C32.9331 62.1159 32.4301 63.6779 32.3561 65.2889C32.2821 66.9 32.6398 68.5016 33.3922 69.928C34.1446 71.3545 35.2644 72.5541 36.6358 73.4028C38.0072 74.2514 39.5804 74.7183 41.1928 74.7552C42.8051 74.7921 44.398 74.3976 45.8068 73.6126C47.2155 72.8275 48.389 71.6804 49.2059 70.2899C50.0228 68.8993 50.4534 67.3158 50.4531 65.703V55.0477C51.2865 56.1224 52.3514 56.9954 53.5685 57.6019C54.7857 58.2085 56.1239 58.5329 57.4837 58.5512C58.8435 58.5695 60.1899 58.2811 61.4229 57.7075C62.6559 57.1339 63.7439 56.2899 64.6059 55.238C65.4678 54.1862 66.0817 52.9536 66.4019 51.6319C66.722 50.3103 66.7402 48.9334 66.4552 47.6037C66.1701 46.274 65.589 45.0257 64.7551 43.9514C63.9213 42.8771 62.8561 42.0046 61.6386 41.3986ZM64.75 33.2971C64.7479 35.1915 63.9947 37.0078 62.6556 38.3478C61.3164 39.6878 59.5006 40.4421 57.6062 40.4454L57.6016 40.4453L57.5924 40.4456L50.4531 40.4453V26.1487H57.6016C59.4968 26.1508 61.3138 26.9047 62.6539 28.2448C63.994 29.5849 64.7479 31.4019 64.75 33.2971ZM52.0537 42.3516C51.4559 42.8167 50.9182 43.3544 50.4531 43.9523V42.3516L52.0537 42.3516ZM34.25 33.2971C34.2522 31.4019 35.006 29.5849 36.3461 28.2448C37.6862 26.9047 39.5032 26.1508 41.3985 26.1487H48.5469V40.4453H41.3985L41.3939 40.4454C39.4995 40.4421 37.6837 39.6878 36.3445 38.3478C35.0054 37.0078 34.2522 35.1915 34.25 33.2971ZM41.3985 72.8513C40.4592 72.8521 39.5291 72.6678 38.6611 72.3089C37.7932 71.95 37.0045 71.4236 36.3401 70.7597C35.6757 70.0958 35.1486 69.3076 34.789 68.4399C34.4294 67.5723 34.2443 66.6422 34.2443 65.703C34.2443 64.7638 34.4294 63.8338 34.789 62.9661C35.1486 62.0985 35.6757 61.3102 36.3401 60.6463C37.0045 59.9825 37.7932 59.456 38.6611 59.0972C39.5291 58.7383 40.4592 58.5539 41.3985 58.5547L48.5469 58.5545V65.703C48.5447 67.5982 47.7909 69.4152 46.4508 70.7553C45.1106 72.0954 43.2937 72.8492 41.3985 72.8513ZM48.5469 56.6482L41.3985 56.6484C39.5032 56.6481 37.6856 55.8952 36.3454 54.5551C35.0051 53.2151 34.2519 51.3976 34.2513 49.5023C34.2507 47.6071 35.0027 45.7891 36.3421 44.4482C37.6816 43.1073 39.4987 42.3532 41.3939 42.3517L41.3985 42.3518L48.5469 42.3516V56.6482ZM57.6016 56.6484C55.7069 56.6478 53.89 55.8951 52.55 54.5556C51.2101 53.2161 50.4567 51.3994 50.4555 49.5047C50.4543 47.6101 51.2053 45.7924 52.5435 44.4512C53.8818 43.1099 55.6977 42.3548 57.5924 42.3518H57.6016L57.6061 42.3517C59.5008 42.3541 61.317 43.1086 62.6557 44.4494C63.9944 45.7902 64.746 47.6076 64.7454 49.5023C64.7448 51.397 63.9921 53.214 62.6525 54.5539C61.313 55.8939 59.4963 56.6472 57.6016 56.6484Z" fill="white"/>
<defs>
<linearGradient id="paint0_linear_101_2" x1="5.5" y1="98" x2="95.5" y2="4" gradientUnits="userSpaceOnUse">
<stop stop-color="#1E1E1E"/>
<stop offset="0.809798" stop-color="#1E1E1E"/>
</linearGradient>
</defs>
</svg>
