<svg width="884" height="797" viewBox="0 0 884 797" fill="none" xmlns="http://www.w3.org/2000/svg">
<g filter="url(#filter0_d_6_144)">
<circle cx="504" cy="663" r="90" fill="url(#paint0_radial_6_144)"/>
<circle cx="504" cy="663" r="90" fill="url(#paint1_radial_6_144)" fill-opacity="0.2"/>
<circle cx="504" cy="663" r="90" fill="url(#paint2_radial_6_144)" fill-opacity="0.2"/>
</g>
<g filter="url(#filter1_d_6_144)">
<circle cx="634.5" cy="667.5" r="115.5" fill="url(#paint3_radial_6_144)"/>
<circle cx="634.5" cy="667.5" r="115.5" fill="url(#paint4_radial_6_144)" fill-opacity="0.2"/>
<circle cx="634.5" cy="667.5" r="115.5" fill="url(#paint5_radial_6_144)" fill-opacity="0.2"/>
</g>
<g filter="url(#filter2_d_6_144)">
<path d="M853 689.5C853 738.929 812.706 779 763 779C713.294 779 673 738.929 673 689.5C673 640.071 713.294 600 763 600C812.706 600 853 640.071 853 689.5Z" fill="url(#paint6_radial_6_144)"/>
<path d="M853 689.5C853 738.929 812.706 779 763 779C713.294 779 673 738.929 673 689.5C673 640.071 713.294 600 763 600C812.706 600 853 640.071 853 689.5Z" fill="url(#paint7_radial_6_144)" fill-opacity="0.2"/>
<path d="M853 689.5C853 738.929 812.706 779 763 779C713.294 779 673 738.929 673 689.5C673 640.071 713.294 600 763 600C812.706 600 853 640.071 853 689.5Z" fill="url(#paint8_radial_6_144)" fill-opacity="0.2"/>
<path d="M853 689.5C853 738.929 812.706 779 763 779C713.294 779 673 738.929 673 689.5C673 640.071 713.294 600 763 600C812.706 600 853 640.071 853 689.5Z" fill="url(#paint9_linear_6_144)" fill-opacity="0.2"/>
</g>
<g filter="url(#filter3_d_6_144)">
<circle cx="543" cy="111" r="90" fill="url(#paint10_radial_6_144)"/>
<circle cx="543" cy="111" r="90" fill="url(#paint11_radial_6_144)" fill-opacity="0.2"/>
<circle cx="543" cy="111" r="90" fill="url(#paint12_radial_6_144)" fill-opacity="0.2"/>
</g>
<g filter="url(#filter4_d_6_144)">
<circle cx="673.5" cy="115.5" r="115.5" fill="url(#paint13_radial_6_144)"/>
<circle cx="673.5" cy="115.5" r="115.5" fill="url(#paint14_radial_6_144)" fill-opacity="0.2"/>
<circle cx="673.5" cy="115.5" r="115.5" fill="url(#paint15_radial_6_144)" fill-opacity="0.2"/>
</g>
<g filter="url(#filter5_d_6_144)">
<path d="M892 137.5C892 186.929 851.706 227 802 227C752.294 227 712 186.929 712 137.5C712 88.0705 752.294 48 802 48C851.706 48 892 88.0705 892 137.5Z" fill="url(#paint16_radial_6_144)"/>
<path d="M892 137.5C892 186.929 851.706 227 802 227C752.294 227 712 186.929 712 137.5C712 88.0705 752.294 48 802 48C851.706 48 892 88.0705 892 137.5Z" fill="url(#paint17_radial_6_144)" fill-opacity="0.2"/>
<path d="M892 137.5C892 186.929 851.706 227 802 227C752.294 227 712 186.929 712 137.5C712 88.0705 752.294 48 802 48C851.706 48 892 88.0705 892 137.5Z" fill="url(#paint18_radial_6_144)" fill-opacity="0.2"/>
<path d="M892 137.5C892 186.929 851.706 227 802 227C752.294 227 712 186.929 712 137.5C712 88.0705 752.294 48 802 48C851.706 48 892 88.0705 892 137.5Z" fill="url(#paint19_linear_6_144)" fill-opacity="0.2"/>
</g>
<g filter="url(#filter6_d_6_144)">
<circle cx="90" cy="316" r="90" fill="url(#paint20_radial_6_144)"/>
<circle cx="90" cy="316" r="90" fill="url(#paint21_radial_6_144)" fill-opacity="0.2"/>
<circle cx="90" cy="316" r="90" fill="url(#paint22_radial_6_144)" fill-opacity="0.2"/>
</g>
<g filter="url(#filter7_d_6_144)">
<circle cx="220.5" cy="320.5" r="115.5" fill="url(#paint23_radial_6_144)"/>
<circle cx="220.5" cy="320.5" r="115.5" fill="url(#paint24_radial_6_144)" fill-opacity="0.2"/>
<circle cx="220.5" cy="320.5" r="115.5" fill="url(#paint25_radial_6_144)" fill-opacity="0.2"/>
</g>
<g filter="url(#filter8_d_6_144)">
<path d="M439 342.5C439 391.929 398.706 432 349 432C299.294 432 259 391.929 259 342.5C259 293.071 299.294 253 349 253C398.706 253 439 293.071 439 342.5Z" fill="url(#paint26_radial_6_144)"/>
<path d="M439 342.5C439 391.929 398.706 432 349 432C299.294 432 259 391.929 259 342.5C259 293.071 299.294 253 349 253C398.706 253 439 293.071 439 342.5Z" fill="url(#paint27_radial_6_144)" fill-opacity="0.2"/>
<path d="M439 342.5C439 391.929 398.706 432 349 432C299.294 432 259 391.929 259 342.5C259 293.071 299.294 253 349 253C398.706 253 439 293.071 439 342.5Z" fill="url(#paint28_radial_6_144)" fill-opacity="0.2"/>
<path d="M439 342.5C439 391.929 398.706 432 349 432C299.294 432 259 391.929 259 342.5C259 293.071 299.294 253 349 253C398.706 253 439 293.071 439 342.5Z" fill="url(#paint29_linear_6_144)" fill-opacity="0.2"/>
</g>
<defs>
<filter id="filter0_d_6_144" x="414" y="573" width="195" height="194" filterUnits="userSpaceOnUse" color-interpolation-filters="sRGB">
<feFlood flood-opacity="0" result="BackgroundImageFix"/>
<feColorMatrix in="SourceAlpha" type="matrix" values="0 0 0 0 0 0 0 0 0 0 0 0 0 0 0 0 0 0 127 0" result="hardAlpha"/>
<feOffset dx="11" dy="10"/>
<feGaussianBlur stdDeviation="2"/>
<feComposite in2="hardAlpha" operator="out"/>
<feColorMatrix type="matrix" values="0 0 0 0 0 0 0 0 0 0 0 0 0 0 0 0 0 0 0.15 0"/>
<feBlend mode="normal" in2="BackgroundImageFix" result="effect1_dropShadow_6_144"/>
<feBlend mode="normal" in="SourceGraphic" in2="effect1_dropShadow_6_144" result="shape"/>
</filter>
<filter id="filter1_d_6_144" x="519" y="552" width="246" height="245" filterUnits="userSpaceOnUse" color-interpolation-filters="sRGB">
<feFlood flood-opacity="0" result="BackgroundImageFix"/>
<feColorMatrix in="SourceAlpha" type="matrix" values="0 0 0 0 0 0 0 0 0 0 0 0 0 0 0 0 0 0 127 0" result="hardAlpha"/>
<feOffset dx="11" dy="10"/>
<feGaussianBlur stdDeviation="2"/>
<feComposite in2="hardAlpha" operator="out"/>
<feColorMatrix type="matrix" values="0 0 0 0 0 0 0 0 0 0 0 0 0 0 0 0 0 0 0.15 0"/>
<feBlend mode="normal" in2="BackgroundImageFix" result="effect1_dropShadow_6_144"/>
<feBlend mode="normal" in="SourceGraphic" in2="effect1_dropShadow_6_144" result="shape"/>
</filter>
<filter id="filter2_d_6_144" x="673" y="600" width="195" height="193" filterUnits="userSpaceOnUse" color-interpolation-filters="sRGB">
<feFlood flood-opacity="0" result="BackgroundImageFix"/>
<feColorMatrix in="SourceAlpha" type="matrix" values="0 0 0 0 0 0 0 0 0 0 0 0 0 0 0 0 0 0 127 0" result="hardAlpha"/>
<feOffset dx="11" dy="10"/>
<feGaussianBlur stdDeviation="2"/>
<feComposite in2="hardAlpha" operator="out"/>
<feColorMatrix type="matrix" values="0 0 0 0 0 0 0 0 0 0 0 0 0 0 0 0 0 0 0.15 0"/>
<feBlend mode="normal" in2="BackgroundImageFix" result="effect1_dropShadow_6_144"/>
<feBlend mode="normal" in="SourceGraphic" in2="effect1_dropShadow_6_144" result="shape"/>
</filter>
<filter id="filter3_d_6_144" x="453" y="21" width="195" height="194" filterUnits="userSpaceOnUse" color-interpolation-filters="sRGB">
<feFlood flood-opacity="0" result="BackgroundImageFix"/>
<feColorMatrix in="SourceAlpha" type="matrix" values="0 0 0 0 0 0 0 0 0 0 0 0 0 0 0 0 0 0 127 0" result="hardAlpha"/>
<feOffset dx="11" dy="10"/>
<feGaussianBlur stdDeviation="2"/>
<feComposite in2="hardAlpha" operator="out"/>
<feColorMatrix type="matrix" values="0 0 0 0 0 0 0 0 0 0 0 0 0 0 0 0 0 0 0.15 0"/>
<feBlend mode="normal" in2="BackgroundImageFix" result="effect1_dropShadow_6_144"/>
<feBlend mode="normal" in="SourceGraphic" in2="effect1_dropShadow_6_144" result="shape"/>
</filter>
<filter id="filter4_d_6_144" x="558" y="0" width="246" height="245" filterUnits="userSpaceOnUse" color-interpolation-filters="sRGB">
<feFlood flood-opacity="0" result="BackgroundImageFix"/>
<feColorMatrix in="SourceAlpha" type="matrix" values="0 0 0 0 0 0 0 0 0 0 0 0 0 0 0 0 0 0 127 0" result="hardAlpha"/>
<feOffset dx="11" dy="10"/>
<feGaussianBlur stdDeviation="2"/>
<feComposite in2="hardAlpha" operator="out"/>
<feColorMatrix type="matrix" values="0 0 0 0 0 0 0 0 0 0 0 0 0 0 0 0 0 0 0.15 0"/>
<feBlend mode="normal" in2="BackgroundImageFix" result="effect1_dropShadow_6_144"/>
<feBlend mode="normal" in="SourceGraphic" in2="effect1_dropShadow_6_144" result="shape"/>
</filter>
<filter id="filter5_d_6_144" x="712" y="48" width="195" height="193" filterUnits="userSpaceOnUse" color-interpolation-filters="sRGB">
<feFlood flood-opacity="0" result="BackgroundImageFix"/>
<feColorMatrix in="SourceAlpha" type="matrix" values="0 0 0 0 0 0 0 0 0 0 0 0 0 0 0 0 0 0 127 0" result="hardAlpha"/>
<feOffset dx="11" dy="10"/>
<feGaussianBlur stdDeviation="2"/>
<feComposite in2="hardAlpha" operator="out"/>
<feColorMatrix type="matrix" values="0 0 0 0 0 0 0 0 0 0 0 0 0 0 0 0 0 0 0.15 0"/>
<feBlend mode="normal" in2="BackgroundImageFix" result="effect1_dropShadow_6_144"/>
<feBlend mode="normal" in="SourceGraphic" in2="effect1_dropShadow_6_144" result="shape"/>
</filter>
<filter id="filter6_d_6_144" x="0" y="226" width="195" height="194" filterUnits="userSpaceOnUse" color-interpolation-filters="sRGB">
<feFlood flood-opacity="0" result="BackgroundImageFix"/>
<feColorMatrix in="SourceAlpha" type="matrix" values="0 0 0 0 0 0 0 0 0 0 0 0 0 0 0 0 0 0 127 0" result="hardAlpha"/>
<feOffset dx="11" dy="10"/>
<feGaussianBlur stdDeviation="2"/>
<feComposite in2="hardAlpha" operator="out"/>
<feColorMatrix type="matrix" values="0 0 0 0 0 0 0 0 0 0 0 0 0 0 0 0 0 0 0.15 0"/>
<feBlend mode="normal" in2="BackgroundImageFix" result="effect1_dropShadow_6_144"/>
<feBlend mode="normal" in="SourceGraphic" in2="effect1_dropShadow_6_144" result="shape"/>
</filter>
<filter id="filter7_d_6_144" x="105" y="205" width="246" height="245" filterUnits="userSpaceOnUse" color-interpolation-filters="sRGB">
<feFlood flood-opacity="0" result="BackgroundImageFix"/>
<feColorMatrix in="SourceAlpha" type="matrix" values="0 0 0 0 0 0 0 0 0 0 0 0 0 0 0 0 0 0 127 0" result="hardAlpha"/>
<feOffset dx="11" dy="10"/>
<feGaussianBlur stdDeviation="2"/>
<feComposite in2="hardAlpha" operator="out"/>
<feColorMatrix type="matrix" values="0 0 0 0 0 0 0 0 0 0 0 0 0 0 0 0 0 0 0.15 0"/>
<feBlend mode="normal" in2="BackgroundImageFix" result="effect1_dropShadow_6_144"/>
<feBlend mode="normal" in="SourceGraphic" in2="effect1_dropShadow_6_144" result="shape"/>
</filter>
<filter id="filter8_d_6_144" x="259" y="253" width="195" height="193" filterUnits="userSpaceOnUse" color-interpolation-filters="sRGB">
<feFlood flood-opacity="0" result="BackgroundImageFix"/>
<feColorMatrix in="SourceAlpha" type="matrix" values="0 0 0 0 0 0 0 0 0 0 0 0 0 0 0 0 0 0 127 0" result="hardAlpha"/>
<feOffset dx="11" dy="10"/>
<feGaussianBlur stdDeviation="2"/>
<feComposite in2="hardAlpha" operator="out"/>
<feColorMatrix type="matrix" values="0 0 0 0 0 0 0 0 0 0 0 0 0 0 0 0 0 0 0.15 0"/>
<feBlend mode="normal" in2="BackgroundImageFix" result="effect1_dropShadow_6_144"/>
<feBlend mode="normal" in="SourceGraphic" in2="effect1_dropShadow_6_144" result="shape"/>
</filter>
<radialGradient id="paint0_radial_6_144" cx="0" cy="0" r="1" gradientUnits="userSpaceOnUse" gradientTransform="translate(474.084 616.743) rotate(41.8202) scale(134.597)">
<stop stop-color="#E5E5EF"/>
<stop offset="1" stop-color="#BED5EB"/>
</radialGradient>
<radialGradient id="paint1_radial_6_144" cx="0" cy="0" r="1" gradientUnits="userSpaceOnUse" gradientTransform="translate(439.391 612.972) rotate(45.7298) scale(167.468)">
<stop stop-color="white" stop-opacity="0.5"/>
<stop offset="1" stop-color="white" stop-opacity="0"/>
</radialGradient>
<radialGradient id="paint2_radial_6_144" cx="0" cy="0" r="1" gradientUnits="userSpaceOnUse" gradientTransform="translate(474.084 621.268) rotate(49.0283) scale(113.873)">
<stop stop-color="white" stop-opacity="0"/>
<stop offset="0.713068" stop-color="white" stop-opacity="0.2"/>
<stop offset="1" stop-color="white" stop-opacity="0.5"/>
</radialGradient>
<radialGradient id="paint3_radial_6_144" cx="0" cy="0" r="1" gradientUnits="userSpaceOnUse" gradientTransform="translate(596.108 608.137) rotate(41.8202) scale(172.733)">
<stop stop-color="#E5E5EF"/>
<stop offset="1" stop-color="#BED5EB"/>
</radialGradient>
<radialGradient id="paint4_radial_6_144" cx="0" cy="0" r="1" gradientUnits="userSpaceOnUse" gradientTransform="translate(551.585 603.297) rotate(45.7298) scale(214.917)">
<stop stop-color="white" stop-opacity="0.5"/>
<stop offset="1" stop-color="white" stop-opacity="0"/>
</radialGradient>
<radialGradient id="paint5_radial_6_144" cx="0" cy="0" r="1" gradientUnits="userSpaceOnUse" gradientTransform="translate(576.625 686.291) rotate(29.0546) scale(131.554)">
<stop stop-color="#D3DEEF"/>
<stop offset="0.713068" stop-color="white" stop-opacity="0.2"/>
<stop offset="1" stop-color="white" stop-opacity="0.5"/>
</radialGradient>
<radialGradient id="paint6_radial_6_144" cx="0" cy="0" r="1" gradientUnits="userSpaceOnUse" gradientTransform="translate(751.687 651) rotate(45.0162) scale(115.579 115.582)">
<stop stop-color="#E5E5EF"/>
<stop offset="1" stop-color="#BED5EB"/>
</radialGradient>
<radialGradient id="paint7_radial_6_144" cx="0" cy="0" r="1" gradientUnits="userSpaceOnUse" gradientTransform="translate(698.391 639.75) rotate(45.5703) scale(166.991 167.012)">
<stop stop-color="white" stop-opacity="0.5"/>
<stop offset="1" stop-color="white" stop-opacity="0"/>
</radialGradient>
<radialGradient id="paint8_radial_6_144" cx="0" cy="0" r="1" gradientUnits="userSpaceOnUse" gradientTransform="translate(740.374 732.5) rotate(0.850346) scale(67.3817 67.0076)">
<stop stop-color="white" stop-opacity="0"/>
<stop offset="0.713068" stop-color="white" stop-opacity="0.2"/>
<stop offset="1" stop-color="white" stop-opacity="0.5"/>
</radialGradient>
<linearGradient id="paint9_linear_6_144" x1="732.832" y1="638.25" x2="835.694" y2="770.306" gradientUnits="userSpaceOnUse">
<stop stop-color="#C0D2EA"/>
<stop offset="1" stop-color="#FDFDFD" stop-opacity="0"/>
</linearGradient>
<radialGradient id="paint10_radial_6_144" cx="0" cy="0" r="1" gradientUnits="userSpaceOnUse" gradientTransform="translate(513.084 64.743) rotate(41.8202) scale(134.597)">
<stop stop-color="#E5E5EF"/>
<stop offset="1" stop-color="#BED5EB"/>
</radialGradient>
<radialGradient id="paint11_radial_6_144" cx="0" cy="0" r="1" gradientUnits="userSpaceOnUse" gradientTransform="translate(478.391 60.9721) rotate(45.7298) scale(167.468)">
<stop stop-color="white" stop-opacity="0.5"/>
<stop offset="1" stop-color="white" stop-opacity="0"/>
</radialGradient>
<radialGradient id="paint12_radial_6_144" cx="0" cy="0" r="1" gradientUnits="userSpaceOnUse" gradientTransform="translate(513.084 69.2682) rotate(49.0283) scale(113.873)">
<stop stop-color="white" stop-opacity="0"/>
<stop offset="0.713068" stop-color="white" stop-opacity="0.2"/>
<stop offset="1" stop-color="white" stop-opacity="0.5"/>
</radialGradient>
<radialGradient id="paint13_radial_6_144" cx="0" cy="0" r="1" gradientUnits="userSpaceOnUse" gradientTransform="translate(635.108 56.1369) rotate(41.8202) scale(172.733)">
<stop stop-color="#E5E5EF"/>
<stop offset="1" stop-color="#BED5EB"/>
</radialGradient>
<radialGradient id="paint14_radial_6_144" cx="0" cy="0" r="1" gradientUnits="userSpaceOnUse" gradientTransform="translate(590.585 51.2975) rotate(45.7298) scale(214.917)">
<stop stop-color="white" stop-opacity="0.5"/>
<stop offset="1" stop-color="white" stop-opacity="0"/>
</radialGradient>
<radialGradient id="paint15_radial_6_144" cx="0" cy="0" r="1" gradientUnits="userSpaceOnUse" gradientTransform="translate(615.625 134.291) rotate(29.0546) scale(131.554)">
<stop stop-color="#D3DEEF"/>
<stop offset="0.713068" stop-color="white" stop-opacity="0.2"/>
<stop offset="1" stop-color="white" stop-opacity="0.5"/>
</radialGradient>
<radialGradient id="paint16_radial_6_144" cx="0" cy="0" r="1" gradientUnits="userSpaceOnUse" gradientTransform="translate(790.687 99) rotate(45.0162) scale(115.579 115.582)">
<stop stop-color="#E5E5EF"/>
<stop offset="1" stop-color="#BED5EB"/>
</radialGradient>
<radialGradient id="paint17_radial_6_144" cx="0" cy="0" r="1" gradientUnits="userSpaceOnUse" gradientTransform="translate(737.391 87.75) rotate(45.5703) scale(166.991 167.012)">
<stop stop-color="white" stop-opacity="0.5"/>
<stop offset="1" stop-color="white" stop-opacity="0"/>
</radialGradient>
<radialGradient id="paint18_radial_6_144" cx="0" cy="0" r="1" gradientUnits="userSpaceOnUse" gradientTransform="translate(779.374 180.5) rotate(0.850346) scale(67.3817 67.0076)">
<stop stop-color="white" stop-opacity="0"/>
<stop offset="0.713068" stop-color="white" stop-opacity="0.2"/>
<stop offset="1" stop-color="white" stop-opacity="0.5"/>
</radialGradient>
<linearGradient id="paint19_linear_6_144" x1="771.832" y1="86.25" x2="874.694" y2="218.306" gradientUnits="userSpaceOnUse">
<stop stop-color="#C0D2EA"/>
<stop offset="1" stop-color="#FDFDFD" stop-opacity="0"/>
</linearGradient>
<radialGradient id="paint20_radial_6_144" cx="0" cy="0" r="1" gradientUnits="userSpaceOnUse" gradientTransform="translate(60.0838 269.743) rotate(41.8202) scale(134.597)">
<stop stop-color="#E5E5EF"/>
<stop offset="1" stop-color="#BED5EB"/>
</radialGradient>
<radialGradient id="paint21_radial_6_144" cx="0" cy="0" r="1" gradientUnits="userSpaceOnUse" gradientTransform="translate(25.3911 265.972) rotate(45.7298) scale(167.468)">
<stop stop-color="white" stop-opacity="0.5"/>
<stop offset="1" stop-color="white" stop-opacity="0"/>
</radialGradient>
<radialGradient id="paint22_radial_6_144" cx="0" cy="0" r="1" gradientUnits="userSpaceOnUse" gradientTransform="translate(60.0838 274.268) rotate(49.0283) scale(113.873)">
<stop stop-color="white" stop-opacity="0"/>
<stop offset="0.713068" stop-color="white" stop-opacity="0.2"/>
<stop offset="1" stop-color="white" stop-opacity="0.5"/>
</radialGradient>
<radialGradient id="paint23_radial_6_144" cx="0" cy="0" r="1" gradientUnits="userSpaceOnUse" gradientTransform="translate(182.108 261.137) rotate(41.8202) scale(172.733)">
<stop stop-color="#E5E5EF"/>
<stop offset="1" stop-color="#BED5EB"/>
</radialGradient>
<radialGradient id="paint24_radial_6_144" cx="0" cy="0" r="1" gradientUnits="userSpaceOnUse" gradientTransform="translate(137.585 256.297) rotate(45.7298) scale(214.917)">
<stop stop-color="white" stop-opacity="0.5"/>
<stop offset="1" stop-color="white" stop-opacity="0"/>
</radialGradient>
<radialGradient id="paint25_radial_6_144" cx="0" cy="0" r="1" gradientUnits="userSpaceOnUse" gradientTransform="translate(162.625 339.291) rotate(29.0546) scale(131.554)">
<stop stop-color="#D3DEEF"/>
<stop offset="0.713068" stop-color="white" stop-opacity="0.2"/>
<stop offset="1" stop-color="white" stop-opacity="0.5"/>
</radialGradient>
<radialGradient id="paint26_radial_6_144" cx="0" cy="0" r="1" gradientUnits="userSpaceOnUse" gradientTransform="translate(337.687 304) rotate(45.0162) scale(115.579 115.582)">
<stop stop-color="#E5E5EF"/>
<stop offset="1" stop-color="#BED5EB"/>
</radialGradient>
<radialGradient id="paint27_radial_6_144" cx="0" cy="0" r="1" gradientUnits="userSpaceOnUse" gradientTransform="translate(284.391 292.75) rotate(45.5703) scale(166.991 167.012)">
<stop stop-color="white" stop-opacity="0.5"/>
<stop offset="1" stop-color="white" stop-opacity="0"/>
</radialGradient>
<radialGradient id="paint28_radial_6_144" cx="0" cy="0" r="1" gradientUnits="userSpaceOnUse" gradientTransform="translate(326.374 385.5) rotate(0.850346) scale(67.3817 67.0076)">
<stop stop-color="white" stop-opacity="0"/>
<stop offset="0.713068" stop-color="white" stop-opacity="0.2"/>
<stop offset="1" stop-color="white" stop-opacity="0.5"/>
</radialGradient>
<linearGradient id="paint29_linear_6_144" x1="318.832" y1="291.25" x2="421.694" y2="423.306" gradientUnits="userSpaceOnUse">
<stop stop-color="#C0D2EA"/>
<stop offset="1" stop-color="#FDFDFD" stop-opacity="0"/>
</linearGradient>
</defs>
</svg>
