<svg width="454" height="245" viewBox="0 0 454 245" fill="none" xmlns="http://www.w3.org/2000/svg">
<g filter="url(#filter0_d_5_62)">
<circle cx="90" cy="111" r="90" fill="url(#paint0_radial_5_62)"/>
<circle cx="90" cy="111" r="90" fill="url(#paint1_radial_5_62)" fill-opacity="0.2"/>
<circle cx="90" cy="111" r="90" fill="url(#paint2_radial_5_62)" fill-opacity="0.2"/>
</g>
<g filter="url(#filter1_d_5_62)">
<circle cx="220.5" cy="115.5" r="115.5" fill="url(#paint3_radial_5_62)"/>
<circle cx="220.5" cy="115.5" r="115.5" fill="url(#paint4_radial_5_62)" fill-opacity="0.2"/>
<circle cx="220.5" cy="115.5" r="115.5" fill="url(#paint5_radial_5_62)" fill-opacity="0.2"/>
</g>
<g filter="url(#filter2_d_5_62)">
<path d="M439 137.5C439 186.929 398.706 227 349 227C299.294 227 259 186.929 259 137.5C259 88.0705 299.294 48 349 48C398.706 48 439 88.0705 439 137.5Z" fill="url(#paint6_radial_5_62)"/>
<path d="M439 137.5C439 186.929 398.706 227 349 227C299.294 227 259 186.929 259 137.5C259 88.0705 299.294 48 349 48C398.706 48 439 88.0705 439 137.5Z" fill="url(#paint7_radial_5_62)" fill-opacity="0.2"/>
<path d="M439 137.5C439 186.929 398.706 227 349 227C299.294 227 259 186.929 259 137.5C259 88.0705 299.294 48 349 48C398.706 48 439 88.0705 439 137.5Z" fill="url(#paint8_radial_5_62)" fill-opacity="0.2"/>
<path d="M439 137.5C439 186.929 398.706 227 349 227C299.294 227 259 186.929 259 137.5C259 88.0705 299.294 48 349 48C398.706 48 439 88.0705 439 137.5Z" fill="url(#paint9_linear_5_62)" fill-opacity="0.2"/>
</g>
<defs>
<filter id="filter0_d_5_62" x="0" y="21" width="195" height="194" filterUnits="userSpaceOnUse" color-interpolation-filters="sRGB">
<feFlood flood-opacity="0" result="BackgroundImageFix"/>
<feColorMatrix in="SourceAlpha" type="matrix" values="0 0 0 0 0 0 0 0 0 0 0 0 0 0 0 0 0 0 127 0" result="hardAlpha"/>
<feOffset dx="11" dy="10"/>
<feGaussianBlur stdDeviation="2"/>
<feComposite in2="hardAlpha" operator="out"/>
<feColorMatrix type="matrix" values="0 0 0 0 0 0 0 0 0 0 0 0 0 0 0 0 0 0 0.15 0"/>
<feBlend mode="normal" in2="BackgroundImageFix" result="effect1_dropShadow_5_62"/>
<feBlend mode="normal" in="SourceGraphic" in2="effect1_dropShadow_5_62" result="shape"/>
</filter>
<filter id="filter1_d_5_62" x="105" y="0" width="246" height="245" filterUnits="userSpaceOnUse" color-interpolation-filters="sRGB">
<feFlood flood-opacity="0" result="BackgroundImageFix"/>
<feColorMatrix in="SourceAlpha" type="matrix" values="0 0 0 0 0 0 0 0 0 0 0 0 0 0 0 0 0 0 127 0" result="hardAlpha"/>
<feOffset dx="11" dy="10"/>
<feGaussianBlur stdDeviation="2"/>
<feComposite in2="hardAlpha" operator="out"/>
<feColorMatrix type="matrix" values="0 0 0 0 0 0 0 0 0 0 0 0 0 0 0 0 0 0 0.15 0"/>
<feBlend mode="normal" in2="BackgroundImageFix" result="effect1_dropShadow_5_62"/>
<feBlend mode="normal" in="SourceGraphic" in2="effect1_dropShadow_5_62" result="shape"/>
</filter>
<filter id="filter2_d_5_62" x="259" y="48" width="195" height="193" filterUnits="userSpaceOnUse" color-interpolation-filters="sRGB">
<feFlood flood-opacity="0" result="BackgroundImageFix"/>
<feColorMatrix in="SourceAlpha" type="matrix" values="0 0 0 0 0 0 0 0 0 0 0 0 0 0 0 0 0 0 127 0" result="hardAlpha"/>
<feOffset dx="11" dy="10"/>
<feGaussianBlur stdDeviation="2"/>
<feComposite in2="hardAlpha" operator="out"/>
<feColorMatrix type="matrix" values="0 0 0 0 0 0 0 0 0 0 0 0 0 0 0 0 0 0 0.15 0"/>
<feBlend mode="normal" in2="BackgroundImageFix" result="effect1_dropShadow_5_62"/>
<feBlend mode="normal" in="SourceGraphic" in2="effect1_dropShadow_5_62" result="shape"/>
</filter>
<radialGradient id="paint0_radial_5_62" cx="0" cy="0" r="1" gradientUnits="userSpaceOnUse" gradientTransform="translate(60.0838 64.743) rotate(41.8202) scale(134.597)">
<stop stop-color="#E5E5EF"/>
<stop offset="1" stop-color="#BED5EB"/>
</radialGradient>
<radialGradient id="paint1_radial_5_62" cx="0" cy="0" r="1" gradientUnits="userSpaceOnUse" gradientTransform="translate(25.3911 60.9721) rotate(45.7298) scale(167.468)">
<stop stop-color="white" stop-opacity="0.5"/>
<stop offset="1" stop-color="white" stop-opacity="0"/>
</radialGradient>
<radialGradient id="paint2_radial_5_62" cx="0" cy="0" r="1" gradientUnits="userSpaceOnUse" gradientTransform="translate(60.0838 69.2682) rotate(49.0283) scale(113.873)">
<stop stop-color="white" stop-opacity="0"/>
<stop offset="0.713068" stop-color="white" stop-opacity="0.2"/>
<stop offset="1" stop-color="white" stop-opacity="0.5"/>
</radialGradient>
<radialGradient id="paint3_radial_5_62" cx="0" cy="0" r="1" gradientUnits="userSpaceOnUse" gradientTransform="translate(182.108 56.1369) rotate(41.8202) scale(172.733)">
<stop stop-color="#E5E5EF"/>
<stop offset="1" stop-color="#BED5EB"/>
</radialGradient>
<radialGradient id="paint4_radial_5_62" cx="0" cy="0" r="1" gradientUnits="userSpaceOnUse" gradientTransform="translate(137.585 51.2975) rotate(45.7298) scale(214.917)">
<stop stop-color="white" stop-opacity="0.5"/>
<stop offset="1" stop-color="white" stop-opacity="0"/>
</radialGradient>
<radialGradient id="paint5_radial_5_62" cx="0" cy="0" r="1" gradientUnits="userSpaceOnUse" gradientTransform="translate(162.625 134.291) rotate(29.0546) scale(131.554)">
<stop stop-color="#D3DEEF"/>
<stop offset="0.713068" stop-color="white" stop-opacity="0.2"/>
<stop offset="1" stop-color="white" stop-opacity="0.5"/>
</radialGradient>
<radialGradient id="paint6_radial_5_62" cx="0" cy="0" r="1" gradientUnits="userSpaceOnUse" gradientTransform="translate(337.687 99) rotate(45.0162) scale(115.579 115.582)">
<stop stop-color="#E5E5EF"/>
<stop offset="1" stop-color="#BED5EB"/>
</radialGradient>
<radialGradient id="paint7_radial_5_62" cx="0" cy="0" r="1" gradientUnits="userSpaceOnUse" gradientTransform="translate(284.391 87.75) rotate(45.5703) scale(166.991 167.012)">
<stop stop-color="white" stop-opacity="0.5"/>
<stop offset="1" stop-color="white" stop-opacity="0"/>
</radialGradient>
<radialGradient id="paint8_radial_5_62" cx="0" cy="0" r="1" gradientUnits="userSpaceOnUse" gradientTransform="translate(326.374 180.5) rotate(0.850346) scale(67.3817 67.0076)">
<stop stop-color="white" stop-opacity="0"/>
<stop offset="0.713068" stop-color="white" stop-opacity="0.2"/>
<stop offset="1" stop-color="white" stop-opacity="0.5"/>
</radialGradient>
<linearGradient id="paint9_linear_5_62" x1="318.832" y1="86.25" x2="421.694" y2="218.306" gradientUnits="userSpaceOnUse">
<stop stop-color="#C0D2EA"/>
<stop offset="1" stop-color="#FDFDFD" stop-opacity="0"/>
</linearGradient>
</defs>
</svg>
