<svg width="100" height="100" viewBox="0 0 100 100" fill="none" xmlns="http://www.w3.org/2000/svg">
<rect width="100" height="100" rx="15" fill="url(#paint0_linear_101_5)"/>
<path d="M77.12 54.182C74.492 54.197 72.217 54.828 70.308 55.768C69.603 54.373 68.898 53.155 68.781 52.245C68.649 51.188 68.487 50.542 68.649 49.279C68.811 48.016 69.545 46.225 69.545 46.079C69.53 45.947 69.385 45.301 67.871 45.286C66.357 45.271 65.051 45.58 64.905 45.986C64.6431 46.7192 64.4322 47.4697 64.274 48.232C64.01 49.612 61.25 54.502 59.679 57.07C59.165 56.072 58.725 55.19 58.637 54.486C58.505 53.429 58.343 52.783 58.505 51.52C58.667 50.257 59.401 48.466 59.401 48.32C59.386 48.188 59.241 47.542 57.727 47.527C56.213 47.512 54.907 47.821 54.761 48.227C54.615 48.633 54.453 49.563 54.131 50.473C53.823 51.373 50.153 59.546 49.198 61.673C48.714 62.759 48.298 63.626 47.978 64.213C47.658 64.8 47.963 64.257 47.934 64.316L47.524 65.094V65.109C47.318 65.476 47.098 65.829 46.994 65.829C46.921 65.829 46.774 64.845 47.024 63.495C47.567 60.662 48.888 56.243 48.874 56.081C48.874 56.008 49.124 55.231 48.024 54.833C46.952 54.437 46.571 55.097 46.484 55.097C46.397 55.097 46.324 55.332 46.324 55.332C46.324 55.332 47.514 50.355 44.048 50.355C41.875 50.355 38.88 52.719 37.398 54.877L29.911 58.973L29.751 58.797C25.551 54.319 17.786 51.147 18.109 45.129C18.226 42.942 18.989 37.172 33.025 30.184C44.52 24.459 53.725 26.029 55.325 29.524C57.601 34.514 50.407 43.794 38.457 45.13C33.907 45.644 31.513 43.882 30.911 43.222C30.281 42.522 30.191 42.502 29.957 42.635C29.575 42.841 29.81 43.457 29.957 43.825C30.309 44.75 31.777 46.395 34.273 47.215C36.46 47.935 41.803 48.331 48.263 45.835C55.496 43 61.148 35.23 59.49 28.725C57.8 22.104 46.82 19.932 36.44 23.617C30.26 25.82 23.566 29.254 18.75 33.76C13.025 39.104 12.114 43.772 12.496 45.71C13.832 52.625 23.36 57.132 27.176 60.464L26.646 60.758C24.738 61.698 17.471 65.5 15.65 69.522C13.595 74.072 15.973 77.347 17.558 77.787C22.461 79.152 27.482 76.701 30.198 72.663C32.898 68.626 32.576 63.385 31.328 60.993L31.284 60.905L32.781 60.025C33.6917 59.4901 34.6119 58.9713 35.541 58.469C35.071 59.746 34.734 61.259 34.557 63.459C34.351 66.043 35.407 69.389 36.803 70.711C37.42 71.284 38.153 71.298 38.609 71.298C40.224 71.298 40.959 69.962 41.765 68.362C42.763 66.409 43.645 64.149 43.645 64.149C43.645 64.149 42.545 70.271 45.553 70.271C46.653 70.271 47.755 68.847 48.253 68.113V68.128C48.253 68.128 48.283 68.084 48.341 67.981C48.458 67.805 48.517 67.701 48.517 67.701V67.671C48.957 66.908 49.941 65.171 51.409 62.268C53.303 58.538 55.123 53.871 55.123 53.871C55.123 53.871 55.299 55.016 55.843 56.895C56.166 58.011 56.871 59.229 57.413 60.418L56.708 61.388L56.723 61.403C56.371 61.873 55.973 62.373 55.563 62.871C54.066 64.661 52.275 66.703 52.04 67.291C51.76 67.991 51.82 68.495 52.363 68.906C52.759 69.2 53.463 69.258 54.213 69.2C55.563 69.112 56.513 68.774 56.973 68.57C57.8204 68.268 58.621 67.8479 59.351 67.322C60.819 66.236 61.715 64.694 61.627 62.639C61.583 61.509 61.217 60.393 60.761 59.336L61.157 58.749C63.477 55.359 65.267 51.629 65.267 51.629C65.267 51.629 65.443 52.774 65.987 54.653C66.267 55.607 66.824 56.65 67.323 57.677C65.15 59.453 63.785 61.509 63.315 62.859C62.449 65.355 63.125 66.485 64.401 66.759C64.974 66.876 65.796 66.612 66.411 66.349C67.174 66.099 68.099 65.674 68.951 65.042C70.419 63.956 71.828 62.444 71.755 60.402C71.711 59.462 71.461 58.538 71.125 57.657C72.975 56.894 75.368 56.453 78.407 56.82C84.94 57.583 86.232 61.665 85.982 63.368C85.732 65.071 84.367 66.011 83.912 66.304C83.457 66.584 83.31 66.686 83.354 66.891C83.414 67.199 83.618 67.185 84.014 67.126C84.557 67.038 87.449 65.731 87.567 62.59C87.743 58.553 83.911 54.15 77.114 54.193L77.12 54.182ZM26.737 71.167C24.579 73.531 21.54 74.427 20.247 73.663C18.852 72.856 19.397 69.376 22.053 66.866C23.668 65.339 25.767 63.93 27.147 63.064L28.483 62.257C28.571 62.197 28.63 62.169 28.63 62.169C28.733 62.109 28.85 62.037 28.968 61.963C29.952 65.545 29.012 68.687 26.738 71.168L26.737 71.167ZM42.519 60.435C41.769 62.27 40.185 66.983 39.231 66.718C38.409 66.498 37.911 62.93 39.071 59.408C39.658 57.632 40.906 55.508 41.641 54.695C42.831 53.375 44.121 52.933 44.445 53.477C44.827 54.182 42.992 59.291 42.522 60.437L42.519 60.435ZM55.54 66.66C55.217 66.82 54.923 66.94 54.79 66.85C54.687 66.79 54.922 66.57 54.922 66.57C54.922 66.57 56.552 64.823 57.198 64.016L58.475 62.386V62.562C58.475 64.676 56.449 66.085 55.539 66.658L55.54 66.66ZM65.582 64.36C65.347 64.184 65.376 63.64 66.169 61.938C66.477 61.263 67.182 60.132 68.399 59.061C68.546 59.501 68.634 59.927 68.619 60.324C68.604 62.967 66.725 63.95 65.579 64.361L65.582 64.36Z" fill="white"/>
<defs>
<linearGradient id="paint0_linear_101_5" x1="5.5" y1="98" x2="95.5" y2="4" gradientUnits="userSpaceOnUse">
<stop stop-color="#C5003A"/>
<stop offset="0.809798" stop-color="#ED0071"/>
</linearGradient>
</defs>
</svg>
